<?xml version="1.0" encoding="UTF-8"?>
<svg width="24px" height="24px" viewBox="0 0 24 24" version="1.1" xmlns="http://www.w3.org/2000/svg" xmlns:xlink="http://www.w3.org/1999/xlink">
    <!-- Generator: sketchtool 54.1 (76490) - https://sketchapp.com -->
    <title>01CF5035-2AA2-4DE3-B24E-CAB30EE889ED</title>
    <desc>Created with sketchtool.</desc>
    <g id="Concept-3-Final-Mobile-design" stroke="none" stroke-width="1" fill="none" fill-rule="evenodd">
        <g id="Profile-screen-info" transform="translate(-240.000000, -238.000000)" fill-rule="nonzero">
            <g id="Group-12" transform="translate(96.000000, 238.000000)">
                <g id="linkedin" transform="translate(144.000000, 0.000000)">
                    <g id="Group-10" transform="translate(0.000000, 0.210316)">
                        <ellipse id="Oval" fill="#007AB9" cx="11.9146195" cy="11.8101053" rx="11.9146195" ry="11.8101053"></ellipse>
                        <path d="M19.0334867,12.7604211 L19.0334867,17.6294737 L16.1855575,17.6294737 L16.1855575,13.0867368 C16.1855575,11.9461053 15.7743717,11.1671579 14.7432212,11.1671579 C13.9563186,11.1671579 13.4888496,11.6915789 13.2824071,12.1993684 C13.2074336,12.3808421 13.1881062,12.6328421 13.1881062,12.8873684 L13.1881062,17.6292632 L10.3399646,17.6292632 C10.3399646,17.6292632 10.3781947,9.93536842 10.3399646,9.13894737 L13.1883186,9.13894737 L13.1883186,10.3421053 C13.1825841,10.3515789 13.1745133,10.3608421 13.1694159,10.3698947 L13.1883186,10.3698947 L13.1883186,10.3421053 C13.5667965,9.76484211 14.2417699,8.93957895 15.7550442,8.93957895 C17.6287434,8.93957895 19.0334867,10.1530526 19.0334867,12.7604211 L19.0334867,12.7604211 Z M7.36056637,5.04631579 C6.38633628,5.04631579 5.74895575,5.68021053 5.74895575,6.51305263 C5.74895575,7.32821053 6.36785841,7.98042105 7.32318584,7.98042105 L7.34166372,7.98042105 C8.33500885,7.98042105 8.95263717,7.32821053 8.95263717,6.51305263 C8.93373451,5.68021053 8.33500885,5.04631579 7.36056637,5.04631579 L7.36056637,5.04631579 Z M5.91823009,17.6294737 L8.76530973,17.6294737 L8.76530973,9.13894737 L5.91823009,9.13894737 L5.91823009,17.6294737 Z" id="Shape" fill="#F1F2F2"></path>
                    </g>
                </g>
            </g>
        </g>
    </g>
</svg>